# xmcd CD database file
# Copyright (C) 1997 Ti Kan
#
# Track frame offsets:
#  183
#  22740
#  45958
#  61725
#  85003
#  113745
#  131600
#  161080
#  183855
#  202220
#
# Disc length: 2963 seconds
#
# Revision: 1
# Processed by: cddbd v1.4b41PL1 Copyright (c) Steve Scherf et al.
# Submitted via: CDWizzard Release:4.31
#
DISCID=750b910a
DTITLE=Fleetwood Mac - The Magic Collection
DYEAR=1900
DGENRE=
TTITLE0=Got To Move
TTITLE1=I Held My Baby Last Night
TTITLE2=My Baby's Sweet
TTITLE3=My Baby's A Good Un
TTITLE4=Don't Know Which Way To Go
TTITLE5=Buzz Me
TTITLE6=The Worried Dream
TTITLE7=The World Keeps On Turning
TTITLE8=How Blue Can You Get
TTITLE9=Bleeding Heart
EXTD=
EXTT0=
EXTT1=
EXTT2=
EXTT3=
EXTT4=
EXTT5=
EXTT6=
EXTT7=
EXTT8=
EXTT9=
PLAYORDER=
